<?xml version="1.0"?>
 <svg xmlns:dc="http://purl.org/dc/elements/1.1/" xmlns:cc="http://creativecommons.org/ns#" xmlns:rdf="http://www.w3.org/1999/02/22-rdf-syntax-ns#" xmlns:svg="http://www.w3.org/2000/svg" xmlns="http://www.w3.org/2000/svg" id="svg1584" version="1.1" viewBox="0 0 880 296" height="4.11111" width="12.2222"> <metadata id="metadata1590"> <rdf:rdf> <cc:work rdf:about=""> <dc:format>image/svg+xml</dc:format> <dc:type rdf:resource="http://purl.org/dc/dcmitype/StillImage"></dc:type> <dc:title></dc:title> </cc:work> </rdf:rdf> </metadata> <defs id="defs1588"></defs> <path style="stroke:none;fill:#ffcc00;fill-opacity:1" d="m 431,115 c -2.02,-6.15 -6.47,-5.83 -12,-7.24 -1.92,-0.49 -5.8,-1.42 -5.8,-3.98 0,-5.27 12.5,-10.79 16.8,-12.2 l 12,-5.04 c 12.72,-4.63 26.44,-7.38 40,-7.54 5.19,-0.06 18.85,1.61 22.79,4.7 4.74,3.72 3.41,8.09 3.79,10.24 0.25,1.36 0.8,2.86 2.47,2.86 2.92,0 4.95,-5.46 5.38,-7.8 1.29,-6.89 -2.91,-14.89 -9.43,-17.44 -16.15,-6.31 -30.58,-4.13 -47,-1.17 l -13,2.23 -9,3.84 c -7.78,2.84 -15.82,5.38 -23,9.63 -3.41,2.03 -9.75,6.63 -12.56,9.37 -1.87,1.83 -5.57,6.77 -7.47,7.63 C 389.34,105.63 392,91.73 392,89 v -6 c -0.31,-25.83 -31.15,-36.97 -53,-37 -8.71,-0.01 -26.73,1.67 -35,3.74 L 275,57.81 251,55 c -22.84,-0.11 -45.06,4.48 -67,10.58 l -13,3.51 -10,4.68 c -23.76,10.27 -39.66,19.02 -61,33.82 -16.38,11.35 -33.43,22.65 -46,38.41 -6.17,7.74 -10.75,13.72 -10.99,24 -0.4,17.43 10.79,28.08 26.99,32.24 l 9,1.22 25,5.25 11,0.58 37,3.71 11,0.92 8,-0.88 h 9 l 12,-0.95 c 33.24,-2.28 51.62,-5.27 83,-17.18 l 16,-6.22 19,-10.38 c 8.94,-4.82 17.61,-9.19 26,-15.03 12.93,-8.99 23.37,-16.38 34.05,-28.28 2.95,-3.3 12.46,-16.85 15.03,-17.83 3.02,-1.15 4.69,1.14 5.03,3.85 0.28,2.22 -0.59,4.52 0.68,8.98 1.73,6.09 5.62,9.21 3.48,12.79 -1.61,2.69 -9.25,5.86 -12.27,7.52 -7.64,4.2 -24.8,15.19 -28.55,22.69 -1.4,2.81 -1.54,5.91 -1.41,9 0.58,13.41 9.4,18.95 20.96,22.66 10.47,3.35 22.03,4.29 33,4.34 l 11,0.72 h 16 l 32,-2.55 c 2.63,-0.2 5.3,-0.2 7.02,2.14 1.73,2.36 1.49,9.04 7.98,8.41 8.13,-0.79 7.7,-10.65 15.02,-14.41 L 511,199.3 c 12.34,-4.35 35.25,-15.26 45,-23.6 15.07,-12.89 27.23,-31 35.92,-48.7 l 6.37,-14 c 1.34,-3.66 1.65,-7.82 4.14,-10.9 3.32,-4.11 21.99,-14.77 27.57,-17.95 l 19,-9.41 10,-5.67 8,-2.43 c 17.63,-5.73 36.27,-11.42 55,-11.64 6.21,-0.07 24.16,0.05 19.04,11 -2.23,4.77 -6.15,7.27 -10.04,10.46 l -8,6.69 c -3.52,2.37 -18.32,8.1 -23,9.8 -6.31,2.29 -17.94,3.71 -20.17,11.05 -1.07,3.52 1.36,8.26 3.56,10.91 l 5.44,5.26 c 3.33,3.36 9.48,11.68 11.83,15.83 3.52,6.2 3.24,8.55 4.81,15 3.57,14.61 -0.07,40.79 -7.37,54 -2.5,4.52 -7.02,9.33 -11.1,12.47 -7.42,5.71 -23.67,8.35 -33,8.35 l -9,-0.81 C 611.29,224.15 562.64,202 526,202 c 1.94,5.89 6.68,6.11 12,8.05 l 15,5.21 18,4.45 c 26.29,7.46 53.31,17.33 81,17.29 9.79,-0.02 33.22,-3.09 40.99,-8.65 3.7,-2.65 9.65,-10.35 12.08,-14.35 2.87,-4.71 8.04,-16.69 9.25,-22 3.36,-14.75 2.31,-41.74 -2.66,-56 -2.9,-8.29 -5.62,-12.62 -11.66,-19 -1.81,-1.92 -6.16,-5.86 -5.47,-8.79 0.98,-4.15 14.6,-7.46 18.47,-9.08 6.6,-2.79 11.9,-6.62 18,-10.14 l 8.91,-3.56 c 2.76,-1.45 9.75,-8.83 11.58,-11.43 1.81,-2.58 2.35,-4.96 2.89,-8 C 756.56,53.72 746.27,46.6 735,46.04 L 715,45 c -13.46,0.16 -31.28,6.07 -44,10.56 -10.46,3.7 -21.01,6.81 -31,11.81 l -23,11.96 c -2.32,1.34 -7.18,5.12 -9.77,4.68 C 602.11,83.13 604.7,72.36 604.91,69 605.57,58.71 600.54,46.18 589,44.48 583.77,43.7 578.34,46.67 574,49.15 564.02,54.84 549.98,68.41 543.58,78 l -13.15,18 -10.35,15 -5.98,8 -17.62,32 c -4.4,8.42 -8.44,17.1 -11.8,26 -1.28,3.41 -4.07,12.52 -6.11,14.77 -4.06,4.51 -11.09,3.87 -16.57,4.4 L 441,198 h -24 l -13,-1 c -11.36,-0.13 -22.73,1.02 -33,-5.21 -3.06,-1.86 -8.01,-5.93 -8.18,-9.79 -0.22,-5.1 8.37,-11.53 12.18,-14.22 l 19,-10.56 c 6.21,-3.27 15,-8.04 22,-8.91 3.43,-0.42 4.87,0.29 8,0.51 6.66,0.47 21.45,-3.35 28,-5.57 4.59,-1.55 8.48,-3.66 7.84,-9.24 -0.94,-8.07 -11.15,-6.99 -16.84,-6.29 -5.39,0.66 -6.39,0.17 -12,2.19 -9.61,3.33 -20.58,12.06 -28.89,0 -0.74,-1.03 -1.67,-2.68 -2.1,-3.91 -2.93,-8.34 4.45,-8.61 9.99,-9.17 L 420,116 c 4.92,-0.02 6.08,0.2 11,-1 z M 287,66 c 18.13,-6.04 20.98,-6.79 40,-8.09 5.31,-0.36 10.64,-1.57 16,-0.69 l 8.73,2.73 h 6.28 c 2.61,0.15 13.86,4.71 15.89,6.44 7.06,6.04 10.1,18.72 8.48,27.61 -0.85,4.7 -1.87,9.11 -7.38,9.84 l -14,-1.01 H 342.72 L 319,101 c -8.9,-0.11 -32.56,-3.18 -41,-5.72 -6.24,-1.88 -12.52,-5.2 -17.98,-8.74 -2.14,-1.39 -5.2,-3.62 -5.28,-6.45 -0.07,-2.84 3.11,-4.22 5.26,-5.23 6.26,-2.92 10.6,-5.33 16.94,-0.89 6.77,4.73 1.36,9.2 4.67,12.41 2.93,2.85 6.66,-0.68 7.96,-3.4 C 292.4,77.07 288.08,71.74 287,66 Z m 212,105 c 1.35,-8.25 3.5,-7.65 6.45,-14 l 2.95,-8 c 2.52,-5.38 5.94,-10.02 9.09,-15 2.42,-3.84 2.07,-5.79 7.51,-14 9.95,-15.01 21.64,-28.57 33.58,-41.99 3.41,-3.83 17.46,-17.43 21.42,-19.21 4.47,-2.01 10.21,-2.81 12.98,2.26 1.57,2.86 1.06,14.14 1.02,17.94 -0.05,3.89 -0.93,12.7 -2.93,15.9 -2.68,4.26 -18.1,12.44 -23.07,15.87 -15.21,10.52 -29.93,22.16 -43,35.23 l -12.83,13 c -4.56,5.04 -6.7,9.18 -13.17,12 z M 248,67 c -2.29,3.67 -5.45,7.55 -5.77,12 -0.9,12.34 17.37,19.7 26.77,22.92 19.12,6.56 43.81,8.78 64,10.17 l 14,1.74 24,1.17 c -1.29,6.05 -5.84,10.63 -10.04,15 -8.32,8.66 -22.78,19.69 -32.96,26.34 -14.51,9.49 -43.79,25.66 -60,30.92 -14.5,4.69 -31.89,8.14 -47,10.31 l -9,0.73 -12,2.41 -31,2.29 -44,-1.91 c -13.39,-0.92 -27.32,-1.98 -40,-6.63 -9.41,-3.45 -6.56,0.98 -16.99,-6.89 -2.59,-1.96 -3.99,-2.84 -5.9,-5.61 -1.92,-2.78 -6.13,-13.76 -5.67,-16.96 0.76,-5.27 6.07,-12.11 9.51,-16 9.93,-11.25 12.83,-13.85 25.05,-22.44 l 20,-14.67 33,-18.63 13,-4.75 c 4.35,-1.82 5.63,-4.53 17,-8.43 l 26,-5.84 12,-3.91 13,-0.72 c 6.23,-1.32 11.27,-5.94 23,-2.61 z m 338,46 c -1.47,9.38 -7.1,17.29 -12.25,25 l -6.28,10 c -9.08,11.79 -27.08,26.43 -40.47,33.24 -7.94,4.04 -14.91,7.55 -24,7.76 2.13,-8.62 10.05,-14.47 15.56,-21 14.47,-17.15 28.35,-28.3 46.44,-41.42 5.99,-4.35 14.02,-11.86 21,-13.58 z" stroke-width="1" stroke="#000000" fill="none" id="Selection"></path> </svg> 