<?xml version="1.0"?>
 <svg xmlns:dc="http://purl.org/dc/elements/1.1/" xmlns:cc="http://creativecommons.org/ns#" xmlns:rdf="http://www.w3.org/1999/02/22-rdf-syntax-ns#" xmlns:svg="http://www.w3.org/2000/svg" xmlns="http://www.w3.org/2000/svg" id="svg936" version="1.1" viewBox="0 0 1680 1464" height="20.3333" width="23.3333"> <metadata id="metadata942"> <rdf:rdf> <cc:work rdf:about=""> <dc:format>image/svg+xml</dc:format> <dc:type rdf:resource="http://purl.org/dc/dcmitype/StillImage"></dc:type> <dc:title></dc:title> </cc:work> </rdf:rdf> </metadata> <defs id="defs940"></defs> <path style="fill:#9f00f5;stroke:none;fill-opacity:1" d="M 336.00,131.49 C 336.00,131.49 299.00,134.44 299.00,134.44 299.00,134.44 268.00,141.33 268.00,141.33 268.00,141.33 250.00,144.92 250.00,144.92 250.00,144.92 236.00,150.19 236.00,150.19 227.11,152.50 223.46,148.83 217.00,150.19 210.60,151.99 203.32,158.85 198.00,162.58 192.97,166.12 178.70,166.90 174.57,175.04 170.89,182.30 171.42,190.13 177.09,195.96 179.10,198.02 181.17,199.80 184.00,200.57 188.98,201.92 194.10,199.79 199.00,199.23 204.71,198.56 205.95,202.01 206.85,207.00 206.85,207.00 206.85,231.00 206.85,231.00 206.85,231.00 208.28,254.00 208.28,254.00 208.18,256.60 209.05,260.73 208.28,263.00 207.45,267.73 200.19,273.15 199.23,281.00 197.95,291.40 207.94,292.17 207.43,300.00 207.43,300.00 206.13,307.00 206.13,307.00 206.13,307.00 202.96,326.00 202.96,326.00 202.96,326.00 200.24,335.00 200.24,335.00 200.24,335.00 196.29,355.00 196.29,355.00 196.29,355.00 195.54,363.00 195.54,363.00 194.55,368.61 192.17,374.49 192.02,380.00 191.63,394.20 197.85,395.55 197.74,404.00 197.69,407.91 196.21,422.39 195.22,426.00 193.61,431.84 190.19,440.11 193.17,446.00 199.14,457.78 213.26,452.01 223.00,450.32 229.04,449.27 234.10,449.38 238.35,443.90 243.44,437.34 242.33,418.75 243.17,410.00 244.10,400.20 245.71,390.61 247.89,381.00 247.89,381.00 252.54,363.00 252.54,363.00 252.54,363.00 255.00,337.00 255.00,337.00 255.00,337.00 255.00,333.00 255.00,333.00 255.00,333.00 256.00,318.00 256.00,318.00 256.05,313.59 254.40,302.11 256.60,299.22 259.75,295.09 270.01,294.30 275.00,293.58 275.00,293.58 297.00,291.91 297.00,291.91 297.00,291.91 316.00,290.00 316.00,290.00 316.00,290.00 328.00,290.00 328.00,290.00 328.00,290.00 348.00,288.00 348.00,288.00 357.30,287.99 378.43,286.85 387.00,284.65 387.00,284.65 395.00,281.77 395.00,281.77 395.00,281.77 404.00,279.48 404.00,279.48 404.00,279.48 426.00,270.31 426.00,270.31 432.73,267.22 445.29,261.51 450.91,257.21 450.91,257.21 458.04,250.61 458.04,250.61 458.04,250.61 464.67,244.83 464.67,244.83 470.11,238.89 470.36,233.27 472.28,226.00 472.28,226.00 474.30,218.00 474.30,218.00 474.72,215.70 474.36,214.22 474.30,212.00 472.96,198.31 470.08,194.76 463.89,183.00 463.89,183.00 457.90,171.00 457.90,171.00 453.90,164.98 437.34,149.97 431.00,146.34 421.39,140.83 411.67,139.55 401.00,137.40 401.00,137.40 374.00,133.00 374.00,133.00 374.00,133.00 363.00,133.00 363.00,133.00 363.00,133.00 350.00,131.49 350.00,131.49 350.00,131.49 344.00,131.49 344.00,131.49 344.00,131.49 336.00,131.49 336.00,131.49 Z M 310.00,169.14 C 310.00,169.14 338.00,169.14 338.00,169.14 338.00,169.14 362.00,171.84 362.00,171.84 373.64,173.09 393.62,176.86 403.00,183.76 410.77,189.49 411.59,192.95 415.49,201.00 415.49,201.00 419.78,209.00 419.78,209.00 422.98,216.82 422.49,229.40 416.78,235.96 408.96,244.92 399.48,245.80 389.00,248.48 389.00,248.48 380.00,250.83 380.00,250.83 380.00,250.83 335.00,254.17 335.00,254.17 335.00,254.17 321.00,256.72 321.00,256.72 321.00,256.72 305.00,259.00 305.00,259.00 305.00,259.00 296.00,259.00 296.00,259.00 296.00,259.00 284.00,260.92 284.00,260.92 277.13,261.47 261.34,264.87 256.74,258.77 255.02,256.49 255.04,253.71 255.00,251.00 255.00,251.00 255.00,246.00 255.00,246.00 255.00,246.00 254.00,233.00 254.00,233.00 254.00,233.00 253.00,211.00 253.00,211.00 253.00,211.00 250.17,188.00 250.17,188.00 249.44,178.42 257.36,176.71 265.00,175.41 265.00,175.41 281.00,172.18 281.00,172.18 281.00,172.18 310.00,169.14 310.00,169.14 Z M 1196.00,292.00 C 1191.20,279.92 1188.05,254.26 1175.00,248.94 1171.26,247.68 1168.78,248.19 1165.00,248.94 1161.30,249.26 1157.37,249.48 1154.65,252.42 1149.19,258.28 1150.43,266.01 1150.91,273.00 1150.91,273.00 1152.17,294.00 1152.17,294.00 1152.17,294.00 1154.00,316.00 1154.00,316.00 1154.02,325.90 1155.31,331.52 1156.70,341.00 1156.70,341.00 1161.72,374.00 1161.72,374.00 1162.76,381.40 1164.99,394.50 1171.33,399.26 1175.81,402.63 1192.97,402.08 1199.00,402.00 1215.13,401.78 1209.34,388.57 1211.45,378.00 1211.45,378.00 1214.85,366.00 1214.85,366.00 1219.60,348.15 1219.05,349.26 1226.69,332.00 1229.69,325.23 1231.95,318.24 1236.10,312.00 1240.90,304.79 1256.73,290.85 1266.00,291.41 1270.84,291.70 1273.07,296.20 1278.00,297.39 1284.80,299.03 1296.59,293.94 1303.00,291.66 1306.85,290.29 1310.79,288.80 1312.83,284.96 1316.10,278.77 1312.25,273.58 1308.41,269.00 1306.09,266.24 1303.24,262.83 1300.00,261.17 1294.46,258.33 1276.61,256.93 1270.00,257.00 1261.33,257.11 1249.29,260.44 1241.00,263.11 1237.35,264.29 1233.45,264.67 1230.00,266.44 1230.00,266.44 1213.00,277.43 1213.00,277.43 1213.00,277.43 1196.00,292.00 1196.00,292.00 Z M 829.00,258.63 C 819.60,262.07 805.14,266.01 804.23,278.00 803.81,283.56 809.72,291.84 813.46,295.68 813.46,295.68 819.59,301.18 819.59,301.18 821.86,303.85 823.55,308.59 824.32,312.00 825.16,315.73 824.96,318.27 825.01,322.00 825.26,339.72 820.34,346.34 809.45,360.00 800.65,371.03 800.29,371.71 790.00,382.00 783.76,388.24 774.81,398.39 766.00,400.47 756.16,402.80 745.36,394.28 747.98,386.00 750.28,378.74 758.76,369.28 763.42,353.00 764.28,350.01 765.70,346.09 765.30,343.00 764.92,340.12 763.20,337.40 761.65,335.00 760.24,332.81 758.55,330.28 756.68,328.47 753.36,325.26 749.56,323.62 745.00,323.18 738.67,322.56 726.87,325.45 722.53,330.21 719.89,333.11 716.15,341.16 714.25,345.00 714.25,345.00 704.74,368.00 704.74,368.00 700.70,375.86 697.79,378.27 693.03,385.00 690.27,388.91 685.99,395.82 681.99,398.25 679.58,399.71 677.59,399.77 675.00,398.76 666.79,395.56 664.60,385.66 664.86,377.72 665.32,363.70 673.09,334.26 679.80,322.00 683.07,316.02 694.88,304.26 695.50,299.00 695.99,294.86 692.62,291.71 689.98,289.00 681.83,280.63 679.30,279.85 668.00,280.00 663.24,280.07 659.97,280.67 656.04,283.64 650.63,287.71 640.37,306.17 637.60,313.00 637.60,313.00 631.13,328.00 631.13,328.00 631.13,328.00 628.96,337.00 628.96,337.00 621.36,363.51 615.78,392.07 635.59,414.99 642.65,423.16 648.18,425.02 658.00,428.02 661.05,428.96 663.77,429.94 667.00,430.22 673.00,430.73 680.96,429.61 687.00,429.36 692.43,428.80 694.49,430.70 701.00,429.36 701.00,429.36 721.00,423.20 721.00,423.20 727.28,423.09 734.44,428.27 741.00,429.77 757.35,432.70 758.15,430.17 772.00,429.77 785.78,429.84 798.06,427.93 810.00,420.53 822.47,412.82 823.46,408.01 831.61,398.17 831.61,398.17 840.71,389.00 840.71,389.00 845.17,383.89 848.31,378.53 852.10,373.01 855.74,367.72 858.64,367.15 862.04,362.00 869.52,350.66 873.15,335.46 873.00,322.00 872.80,304.80 861.22,282.82 850.25,270.01 844.46,263.26 838.45,256.78 829.00,258.63 Z M 1392.01,261.70 C 1387.72,263.72 1386.35,265.30 1383.43,269.01 1377.30,276.80 1376.21,283.01 1381.04,292.00 1382.37,294.46 1384.76,297.71 1387.09,299.26 1390.79,301.73 1398.51,301.01 1403.00,301.00 1408.53,300.99 1414.44,300.79 1418.57,296.47 1421.94,292.94 1421.28,285.45 1420.33,281.00 1417.24,266.55 1406.70,258.36 1392.01,261.70 Z M 1016.00,262.46 C 1016.00,262.46 999.00,265.57 999.00,265.57 982.95,270.33 961.99,282.44 950.04,294.09 947.47,296.59 941.13,304.05 939.04,307.00 939.04,307.00 933.62,315.00 933.62,315.00 931.51,317.59 929.03,319.95 926.00,321.43 919.90,324.42 912.51,323.31 913.48,333.00 914.45,342.67 919.15,345.78 920.61,352.00 920.61,352.00 922.46,365.00 922.46,365.00 925.86,383.01 930.74,398.83 946.09,410.23 948.19,411.79 956.58,416.43 959.00,417.39 972.47,422.75 995.15,421.07 1010.00,421.00 1010.00,421.00 1035.00,419.00 1035.00,419.00 1052.60,418.80 1046.26,418.23 1061.00,416.29 1065.10,415.75 1069.37,416.40 1072.77,413.49 1080.43,406.94 1073.38,392.09 1065.96,388.31 1063.66,387.14 1052.04,386.08 1049.00,386.01 1049.00,386.01 990.00,392.00 990.00,392.00 977.77,391.85 967.11,385.40 964.04,373.00 963.46,370.66 962.85,367.36 963.44,365.00 964.62,360.38 967.84,359.31 972.00,358.40 983.58,355.88 982.62,356.79 995.00,352.67 1005.40,349.20 1020.50,343.46 1028.99,336.61 1028.99,336.61 1038.04,327.17 1038.04,327.17 1043.42,322.08 1050.17,317.16 1053.00,310.00 1053.92,307.66 1053.96,305.45 1054.28,303.00 1054.88,298.38 1054.70,290.45 1053.35,286.00 1052.27,282.44 1049.50,278.88 1047.19,276.00 1039.07,265.86 1029.18,260.76 1016.00,262.46 Z M 504.00,289.60 C 487.38,291.07 477.50,299.03 465.00,309.00 459.17,313.65 454.18,318.69 448.91,323.92 430.05,342.64 429.36,343.63 417.75,367.00 414.83,372.88 410.48,381.81 408.75,388.00 407.64,391.95 404.13,409.49 404.26,413.00 404.46,418.19 408.45,431.79 411.64,435.91 417.82,443.89 431.94,449.88 442.00,449.91 442.00,449.91 457.00,449.91 457.00,449.91 457.00,449.91 469.00,448.07 469.00,448.07 479.24,447.12 496.97,442.01 507.00,438.67 519.91,434.37 540.09,428.26 551.00,420.37 554.50,417.82 556.35,415.13 559.17,412.00 559.17,412.00 565.37,405.00 565.37,405.00 570.10,398.38 573.90,386.14 573.83,378.00 574.02,375.64 574.07,372.28 573.83,370.00 571.69,358.55 560.95,338.27 552.96,330.01 552.96,330.01 530.32,310.71 530.32,310.71 522.92,303.03 515.77,289.99 504.00,289.60 Z M 999.00,305.00 C 999.00,305.00 999.00,306.00 999.00,306.00 999.00,306.00 998.00,305.00 998.00,305.00 998.00,305.00 999.00,305.00 999.00,305.00 Z M 998.00,306.00 C 995.61,311.03 993.27,313.20 988.00,315.00 990.39,309.97 992.73,307.80 998.00,306.00 Z M 988.00,315.00 C 988.00,315.00 988.00,316.00 988.00,316.00 988.00,316.00 987.00,315.00 987.00,315.00 987.00,315.00 988.00,315.00 988.00,315.00 Z M 488.00,341.11 C 488.00,341.11 497.00,343.81 497.00,343.81 503.99,344.74 507.48,342.37 514.00,347.39 516.59,349.39 521.38,354.11 522.83,357.00 524.10,359.55 524.04,363.13 524.42,366.00 525.67,375.37 525.16,386.40 518.78,394.00 508.33,406.42 491.67,410.22 477.00,415.00 471.30,416.86 458.77,419.83 453.00,418.77 442.83,416.91 447.83,402.37 450.00,396.00 451.87,390.55 461.35,369.40 464.13,365.00 464.13,365.00 472.66,354.00 472.66,354.00 476.38,349.35 481.99,342.16 488.00,341.11 Z M 1394.00,345.71 C 1390.16,346.66 1386.33,348.25 1383.17,350.79 1374.37,357.86 1375.20,371.11 1385.01,376.59 1391.89,380.43 1398.66,379.47 1406.00,378.98 1412.42,378.54 1420.37,377.94 1421.35,370.00 1422.38,361.66 1417.21,349.03 1409.00,345.71 1405.29,344.47 1397.94,344.88 1394.00,345.71 Z M 736.00,499.48 C 728.54,501.21 716.79,508.45 714.25,516.00 712.60,520.92 714.10,522.67 713.66,527.00 713.66,527.00 710.14,542.00 710.14,542.00 710.14,542.00 697.45,574.00 697.45,574.00 697.00,576.48 696.77,580.57 697.45,583.00 699.33,590.03 706.62,595.86 714.00,594.79 717.43,594.29 719.81,592.68 723.00,591.55 727.57,589.92 732.88,589.44 736.36,585.61 738.86,582.86 739.92,578.42 741.31,575.00 741.31,575.00 749.01,557.00 749.01,557.00 752.21,549.24 756.88,541.56 756.77,533.00 757.05,529.30 757.18,522.40 756.77,519.00 754.66,509.08 747.09,498.51 736.00,499.48 Z M 464.00,503.46 C 460.05,504.34 450.96,506.19 448.04,508.43 443.11,512.20 442.32,517.61 436.00,518.97 436.00,518.97 429.00,518.97 429.00,518.97 429.00,518.97 405.00,521.96 405.00,521.96 395.09,522.35 382.53,515.88 373.00,520.44 369.85,521.95 367.06,524.49 364.76,527.09 355.19,537.90 362.14,549.38 374.00,554.94 382.78,558.53 387.39,556.00 396.00,554.94 396.00,554.94 411.00,554.94 411.00,554.94 411.00,554.94 421.00,554.32 421.00,554.32 423.60,554.13 434.75,554.84 436.23,556.60 438.28,558.81 436.50,565.17 436.23,568.00 434.39,582.53 431.99,587.89 429.01,601.00 429.01,601.00 418.17,646.00 418.17,646.00 417.28,652.17 417.12,663.46 411.87,667.42 408.43,670.01 403.10,669.84 399.00,670.04 399.00,670.04 380.00,671.00 380.00,671.00 380.00,671.00 366.00,672.83 366.00,672.83 352.39,674.21 340.91,671.89 331.39,684.00 329.55,686.33 327.47,689.98 327.27,693.00 326.87,699.02 334.80,705.26 340.00,706.94 347.92,709.50 351.87,706.93 359.00,706.07 359.00,706.07 381.00,706.07 381.00,706.07 381.00,706.07 407.00,703.75 407.00,703.75 407.00,703.75 418.00,703.75 418.00,703.75 418.00,703.75 425.00,703.75 425.00,703.75 425.00,703.75 435.00,703.00 435.00,703.00 448.74,702.94 445.54,702.27 457.00,701.17 457.00,701.17 479.00,699.83 479.00,699.83 479.00,699.83 495.00,698.00 495.00,698.00 507.39,697.86 507.48,697.21 519.00,695.32 519.00,695.32 526.00,694.71 526.00,694.71 526.00,694.71 534.00,693.29 534.00,693.29 534.00,693.29 550.00,691.71 550.00,691.71 550.00,691.71 559.00,690.04 559.00,690.04 559.00,690.04 567.00,690.04 567.00,690.04 567.00,690.04 576.00,689.03 576.00,689.03 581.69,689.03 583.72,690.46 588.00,690.81 597.26,691.58 606.65,684.46 615.00,680.87 618.49,679.37 622.85,678.51 624.82,674.89 628.11,668.84 620.80,660.93 616.00,658.07 607.44,652.97 603.66,654.58 595.00,654.96 595.00,654.96 576.00,656.29 576.00,656.29 569.67,657.12 569.35,657.96 562.00,658.00 562.00,658.00 555.00,658.00 555.00,658.00 546.85,658.10 539.00,660.33 531.00,661.58 531.00,661.58 514.00,663.30 514.00,663.30 508.50,664.08 508.78,664.92 502.00,665.00 502.00,665.00 488.00,664.21 488.00,664.21 483.11,664.46 469.13,667.76 465.31,665.09 463.02,663.50 463.00,660.51 463.02,658.00 463.06,651.81 465.82,644.50 466.92,638.00 466.92,638.00 469.62,623.00 469.62,623.00 469.62,623.00 474.11,609.00 474.11,609.00 474.11,609.00 476.52,592.00 476.52,592.00 476.52,592.00 482.42,572.00 482.42,572.00 484.25,565.35 484.50,553.56 490.10,549.85 493.81,547.40 510.66,546.42 516.00,545.93 516.00,545.93 533.00,544.83 533.00,544.83 533.00,544.83 556.00,542.37 556.00,542.37 556.00,542.37 566.00,542.99 566.00,542.99 566.00,542.99 577.00,542.04 577.00,542.04 590.49,541.52 596.05,547.59 605.00,548.69 612.40,549.60 629.01,542.58 636.00,539.25 638.44,538.10 642.91,536.38 644.69,534.59 650.17,529.04 643.14,521.39 639.34,517.10 631.01,507.71 606.96,506.86 595.00,507.00 595.00,507.00 585.00,507.82 585.00,507.82 585.00,507.82 574.00,507.04 574.00,507.04 574.00,507.04 553.00,509.00 553.00,509.00 553.00,509.00 531.00,511.00 531.00,511.00 531.00,511.00 499.00,513.09 499.00,513.09 499.00,513.09 493.00,513.72 493.00,513.72 487.78,513.64 485.14,509.63 481.00,506.96 475.00,503.09 470.94,502.50 464.00,503.46 Z M 975.00,561.46 C 968.66,562.26 962.17,562.29 956.00,564.22 945.75,567.42 935.66,573.65 927.00,579.86 912.72,590.09 894.09,608.10 888.10,625.00 886.71,628.92 885.20,639.74 885.04,644.00 884.67,653.50 887.32,657.10 891.70,665.00 895.83,672.46 896.29,671.98 901.91,678.00 903.95,680.18 905.78,682.57 908.09,684.47 917.95,692.63 931.64,694.98 944.00,695.00 944.00,695.00 958.00,695.82 958.00,695.82 958.00,695.82 979.00,695.00 979.00,695.00 979.00,695.00 997.00,694.00 997.00,694.00 1008.85,693.94 1013.31,691.03 1021.00,690.17 1037.51,688.33 1042.21,686.98 1058.00,683.13 1061.79,682.20 1066.48,681.44 1070.00,679.89 1081.11,674.99 1077.39,662.19 1069.00,656.72 1063.33,653.03 1050.88,653.91 1044.00,654.00 1035.97,654.11 1035.18,656.24 1028.00,658.25 1028.00,658.25 1016.00,660.80 1016.00,660.80 996.21,664.73 982.15,666.03 962.00,666.00 950.61,665.98 940.09,662.44 932.09,653.98 929.41,651.15 923.67,644.53 928.23,640.94 931.65,638.24 937.60,642.35 945.00,641.82 953.57,641.20 961.76,638.72 970.00,636.61 970.00,636.61 978.00,635.33 978.00,635.33 983.63,634.13 996.83,628.66 1000.82,624.79 1004.11,621.60 1005.48,617.97 1007.47,614.00 1009.76,609.44 1010.75,607.22 1010.96,602.00 1011.25,594.84 1009.96,593.29 1007.45,587.00 1005.82,582.93 1004.49,578.70 1002.04,575.01 996.10,566.12 985.57,560.93 975.00,561.46 Z M 855.00,591.43 C 851.08,592.07 845.49,592.73 842.00,594.44 830.60,599.99 824.71,614.94 816.79,625.00 816.79,625.00 806.88,637.00 806.88,637.00 805.50,638.74 803.33,641.90 800.97,642.23 795.91,642.94 791.74,631.66 789.67,628.00 781.52,613.68 776.15,603.15 758.00,606.25 754.17,606.90 751.13,607.40 748.21,610.23 743.24,615.03 741.00,623.34 742.76,630.00 744.52,636.65 752.62,649.37 756.11,656.00 761.53,666.27 767.53,679.79 774.52,689.00 779.27,695.25 787.28,704.30 796.00,703.59 799.80,703.27 819.05,698.33 821.78,696.15 826.32,692.52 825.98,686.83 827.68,682.00 828.76,678.92 832.13,673.83 834.00,671.00 841.60,659.53 850.27,648.38 859.28,638.00 863.48,633.17 874.90,620.33 877.00,615.00 880.16,606.96 874.75,595.19 867.00,592.01 863.39,590.53 858.78,590.96 855.00,591.43 Z M 963.00,598.00 C 962.09,605.89 956.85,610.03 949.00,608.00 952.30,601.98 956.29,599.28 963.00,598.00 Z M 463.00,738.52 C 446.72,742.84 434.34,743.61 419.00,752.93 390.76,770.07 381.16,793.37 374.11,824.00 371.36,835.97 368.86,849.73 369.00,862.00 369.16,875.26 378.14,899.44 386.13,910.00 389.67,914.67 395.09,920.94 401.00,922.25 403.99,923.17 407.01,922.32 410.00,922.25 417.01,921.53 429.86,919.85 434.30,913.89 437.45,909.67 440.31,892.99 441.74,887.00 443.92,877.88 443.91,865.11 456.00,863.21 460.08,862.57 470.66,861.69 473.69,864.51 476.75,867.37 475.45,871.38 475.05,875.00 475.05,875.00 473.91,890.00 473.91,890.00 473.91,890.00 473.00,900.00 473.00,900.00 472.84,914.01 473.63,937.64 488.00,944.83 494.70,948.18 506.13,943.01 513.00,941.52 515.72,940.92 519.34,941.16 521.49,939.26 523.67,937.33 524.07,933.73 523.80,931.00 523.20,924.90 520.02,923.36 519.76,909.00 519.76,909.00 519.76,882.00 519.76,882.00 519.76,882.00 526.00,832.00 526.00,832.00 526.00,832.00 526.00,815.00 526.00,815.00 526.00,815.00 525.00,798.00 525.00,798.00 524.92,791.58 524.09,789.97 522.42,784.00 515.04,757.47 492.60,733.83 463.00,738.52 Z M 613.00,750.64 C 609.96,750.93 606.73,751.27 604.10,753.01 601.30,754.86 600.26,757.18 598.70,760.00 591.68,772.69 594.52,778.36 592.82,792.00 592.82,792.00 589.42,805.00 589.42,805.00 589.42,805.00 582.52,840.00 582.52,840.00 577.06,861.33 572.49,875.48 570.91,898.00 570.91,898.00 570.00,908.00 570.00,908.00 570.00,908.00 570.83,920.00 570.83,920.00 571.64,928.36 572.83,938.92 583.00,941.39 586.63,942.27 595.13,940.23 599.00,939.45 603.11,938.62 611.69,937.55 613.98,933.78 616.99,928.81 611.66,915.28 611.18,909.00 610.75,903.30 615.25,875.27 616.92,869.00 616.92,869.00 620.37,858.00 620.37,858.00 620.37,858.00 625.44,837.00 625.44,837.00 625.44,837.00 632.54,812.00 632.54,812.00 632.54,812.00 635.39,788.00 635.39,788.00 637.44,776.59 638.23,770.68 632.74,760.00 630.91,756.44 628.84,752.51 624.96,750.64 621.79,749.50 616.40,750.01 613.00,750.64 Z M 456.00,772.39 C 461.08,771.70 467.58,771.95 471.59,775.65 473.89,777.78 475.66,782.98 476.64,786.00 477.92,789.92 480.57,806.85 480.70,811.00 480.70,811.00 480.70,819.00 480.70,819.00 480.65,821.17 481.06,822.70 480.70,825.00 479.72,834.30 470.66,831.63 464.00,832.03 460.82,832.31 456.09,833.73 453.28,832.03 448.84,829.22 448.66,816.10 447.69,811.00 447.69,811.00 444.46,800.00 444.46,800.00 442.56,794.78 438.24,788.69 441.18,783.04 442.66,780.18 446.35,777.52 449.00,775.75 451.80,773.88 452.83,773.39 456.00,772.39 Z M 1225.00,877.00 C 1225.00,877.00 1215.00,879.79 1215.00,879.79 1215.00,879.79 1201.00,880.80 1201.00,880.80 1193.99,882.12 1182.56,885.12 1179.03,892.04 1175.78,898.40 1183.76,905.76 1189.00,908.01 1191.96,909.28 1196.79,910.05 1200.00,909.82 1200.00,909.82 1229.00,906.39 1229.00,906.39 1229.00,906.39 1250.00,901.66 1250.00,901.66 1256.92,900.26 1266.58,899.72 1271.49,893.79 1277.09,887.03 1271.71,875.29 1267.77,869.00 1264.90,864.42 1262.76,861.86 1258.99,858.00 1251.97,850.82 1247.86,847.56 1239.00,842.89 1227.36,836.76 1214.16,834.67 1202.00,830.00 1208.60,824.74 1218.69,823.54 1217.83,813.00 1216.96,802.42 1214.20,797.14 1203.00,797.00 1203.00,797.00 1193.00,797.00 1193.00,797.00 1184.88,797.10 1183.87,798.60 1177.00,802.22 1170.88,805.44 1164.04,809.09 1159.21,814.17 1151.22,822.59 1149.50,834.91 1157.21,844.00 1161.29,848.81 1167.87,854.38 1174.00,856.22 1189.93,861.00 1216.39,858.96 1225.00,877.00 Z M 915.00,801.46 C 905.90,803.51 897.60,809.57 891.00,816.01 879.44,827.29 864.85,847.31 860.43,863.00 858.10,871.24 857.25,880.39 861.99,888.00 864.68,892.31 871.61,897.90 876.00,900.52 882.42,904.36 884.33,903.48 891.00,904.28 907.64,906.28 923.94,903.41 940.00,899.12 948.28,896.90 949.44,894.12 958.00,894.00 971.10,893.83 985.55,894.87 998.00,889.93 1007.53,886.14 1006.71,875.27 999.89,869.39 995.47,865.58 992.21,866.34 987.00,865.72 977.73,864.60 971.41,865.09 964.09,857.90 957.09,851.01 957.03,845.37 953.47,839.00 953.47,839.00 942.13,822.96 942.13,822.96 942.13,822.96 937.56,809.00 937.56,809.00 932.69,799.76 924.04,800.21 915.00,801.46 Z M 1054.00,856.00 C 1047.36,850.68 1041.74,838.26 1034.02,830.00 1028.94,824.56 1020.66,815.38 1013.00,814.21 1008.58,813.54 1005.18,814.76 1001.00,815.54 993.65,816.92 988.53,816.88 987.37,826.00 985.89,837.59 1000.27,851.35 1006.37,860.00 1006.37,860.00 1020.09,882.00 1020.09,882.00 1020.09,882.00 1026.09,888.83 1026.09,888.83 1029.23,891.89 1034.70,894.99 1034.33,900.00 1034.04,903.85 1029.23,911.19 1027.51,915.00 1027.51,915.00 1017.27,935.00 1017.27,935.00 1017.27,935.00 1008.24,955.00 1008.24,955.00 1006.84,957.88 1005.25,960.86 1004.53,964.00 1003.87,966.84 1004.30,970.43 1002.40,972.69 998.84,976.93 989.09,973.48 985.74,982.02 983.22,988.43 988.57,998.13 991.23,1004.00 995.20,1012.77 997.02,1020.50 998.36,1030.00 998.58,1033.58 999.56,1038.46 998.36,1041.98 995.41,1053.23 976.96,1044.74 975.47,1057.00 975.04,1058.59 975.33,1060.45 975.47,1062.00 976.87,1067.29 979.74,1072.69 985.01,1074.74 990.73,1076.97 998.35,1075.63 1001.35,1082.02 1003.17,1085.89 1002.91,1091.64 1003.59,1096.00 1005.12,1105.80 1007.19,1110.08 1009.70,1119.00 1012.87,1130.27 1011.98,1140.10 1025.00,1145.39 1028.25,1146.71 1039.25,1147.90 1043.00,1147.99 1047.04,1148.08 1054.52,1148.10 1057.26,1144.69 1059.67,1141.70 1058.37,1135.62 1057.83,1132.00 1057.06,1126.79 1055.20,1124.64 1053.77,1120.00 1053.77,1120.00 1047.49,1096.00 1047.49,1096.00 1046.31,1091.64 1044.66,1083.04 1047.49,1079.23 1051.21,1074.54 1058.06,1076.27 1063.00,1077.08 1063.00,1077.08 1101.00,1079.91 1101.00,1079.91 1107.20,1080.31 1118.05,1079.37 1117.76,1071.00 1117.55,1065.06 1113.45,1057.21 1108.00,1054.57 1104.84,1053.04 1095.99,1052.32 1092.00,1051.73 1092.00,1051.73 1074.00,1048.43 1074.00,1048.43 1074.00,1048.43 1060.00,1046.75 1060.00,1046.75 1056.90,1046.25 1049.09,1046.09 1047.11,1044.98 1043.21,1042.79 1043.22,1038.86 1042.57,1035.00 1041.41,1028.17 1039.80,1017.16 1037.56,1011.00 1037.56,1011.00 1031.75,997.00 1031.75,997.00 1030.74,994.86 1028.91,991.64 1029.70,989.22 1030.94,985.43 1036.78,985.28 1040.00,984.84 1045.48,984.11 1051.91,981.94 1054.91,976.96 1061.40,966.19 1049.94,956.84 1054.02,949.09 1055.71,945.87 1058.64,945.33 1062.69,938.00 1062.69,938.00 1067.37,928.00 1067.37,928.00 1067.37,928.00 1085.03,890.00 1085.03,890.00 1085.03,890.00 1093.63,875.00 1093.63,875.00 1093.63,875.00 1099.86,860.00 1099.86,860.00 1104.26,849.97 1113.49,830.69 1112.68,820.00 1112.36,815.84 1111.49,808.43 1108.57,805.39 1103.94,800.56 1090.84,801.34 1085.00,803.56 1082.05,804.68 1079.45,806.54 1077.09,808.62 1071.38,813.67 1068.79,822.04 1066.00,829.00 1066.00,829.00 1054.00,856.00 1054.00,856.00 Z M 690.00,895.00 C 690.34,887.64 691.71,886.87 692.68,881.00 692.68,881.00 693.61,873.00 693.61,873.00 696.21,862.68 700.56,852.93 699.96,842.00 699.66,836.56 694.21,824.64 688.96,822.60 684.11,820.71 672.51,824.29 668.02,826.57 665.85,827.66 664.35,828.90 663.16,831.04 663.16,831.04 656.96,857.00 656.96,857.00 651.06,877.35 640.47,903.79 657.87,921.42 660.88,924.48 663.70,928.39 668.00,929.57 668.00,929.57 685.00,930.91 685.00,930.91 685.00,930.91 715.00,924.40 715.00,924.40 715.00,924.40 727.00,919.54 727.00,919.54 731.48,918.62 734.62,920.36 739.00,920.91 739.00,920.91 754.00,920.91 754.00,920.91 763.13,920.99 770.23,918.97 779.00,916.88 785.45,915.35 799.34,911.57 805.00,908.87 825.44,899.10 837.60,882.98 842.00,861.00 842.00,861.00 844.43,845.00 844.43,845.00 845.82,835.43 848.51,829.89 842.75,821.00 840.90,818.14 839.13,816.08 836.00,814.57 826.17,809.82 808.68,814.54 803.97,825.00 802.04,829.29 801.74,836.13 800.71,841.00 796.77,859.78 790.14,884.56 769.00,890.51 765.42,891.52 758.27,893.21 757.25,887.89 756.82,885.64 759.14,879.64 759.76,877.00 759.76,877.00 761.57,869.00 761.57,869.00 765.31,856.53 769.45,847.64 757.96,837.13 755.11,834.52 752.86,833.39 749.00,833.10 743.90,832.71 730.99,835.27 727.04,838.42 722.51,842.02 720.38,848.00 717.69,853.00 717.69,853.00 700.74,882.00 700.74,882.00 697.07,887.44 695.89,891.52 690.00,895.00 Z M 912.00,852.00 C 914.67,857.77 916.80,874.38 907.99,875.76 902.06,876.69 900.26,873.33 901.39,868.00 902.61,862.22 906.95,855.02 912.00,852.00 Z M 846.02,989.57 C 840.16,992.00 839.28,995.98 840.21,1002.00 840.21,1002.00 847.92,1020.00 847.92,1020.00 850.06,1026.23 850.62,1035.20 851.58,1042.00 852.46,1048.23 853.00,1057.25 849.84,1062.96 847.40,1067.36 843.02,1067.94 841.74,1073.02 840.03,1079.81 845.83,1088.99 845.74,1095.00 845.74,1095.00 843.00,1120.00 843.00,1120.00 842.93,1134.11 842.75,1138.19 847.33,1152.00 851.40,1164.25 854.50,1171.55 869.00,1170.47 875.85,1169.95 885.86,1176.76 892.96,1172.98 900.39,1169.02 897.75,1159.78 894.39,1154.00 884.53,1137.03 884.94,1133.92 887.73,1115.00 888.37,1110.65 889.44,1102.73 892.00,1099.22 894.91,1095.24 901.43,1094.63 906.00,1094.00 906.00,1094.00 936.00,1088.72 936.00,1088.72 942.74,1087.85 951.04,1087.75 950.38,1079.00 950.23,1076.97 949.80,1072.80 949.11,1071.00 944.06,1057.88 926.18,1060.98 915.00,1061.00 903.56,1061.02 896.85,1065.78 895.11,1057.00 895.11,1057.00 895.11,1051.00 895.11,1051.00 894.97,1034.07 893.54,1029.97 888.72,1014.00 885.81,1004.34 884.08,1000.69 876.00,994.09 873.89,992.37 871.61,990.58 869.00,989.70 866.56,988.88 863.57,989.00 861.00,989.00 856.01,988.99 850.93,988.67 846.02,989.57 Z M 488.00,1157.00 C 486.15,1148.64 490.88,1138.91 493.48,1131.00 493.48,1131.00 497.52,1116.00 497.52,1116.00 497.52,1116.00 501.91,1105.00 501.91,1105.00 501.91,1105.00 506.83,1084.00 506.83,1084.00 507.45,1078.20 506.93,1071.88 503.35,1067.04 495.89,1056.95 483.80,1056.34 473.00,1060.42 470.98,1061.19 468.00,1062.29 466.39,1063.70 461.80,1067.69 457.98,1086.45 455.98,1093.00 451.76,1106.77 447.12,1114.98 439.34,1127.00 435.38,1133.14 434.76,1135.92 429.00,1141.00 429.77,1131.81 434.05,1123.40 437.58,1115.00 437.58,1115.00 450.37,1085.00 450.37,1085.00 450.37,1085.00 459.51,1069.00 459.51,1069.00 462.84,1062.59 461.69,1059.75 466.18,1051.02 471.65,1040.38 480.71,1050.97 481.89,1039.00 483.32,1024.52 468.51,1029.37 463.00,1027.26 458.59,1025.58 455.67,1020.79 451.00,1018.45 442.86,1014.38 432.77,1020.09 427.42,1026.29 424.37,1029.81 423.82,1034.67 422.57,1039.00 422.57,1039.00 415.09,1061.00 415.09,1061.00 415.09,1061.00 407.03,1080.00 407.03,1080.00 407.03,1080.00 399.96,1104.00 399.96,1104.00 399.96,1104.00 395.35,1113.00 395.35,1113.00 395.35,1113.00 388.55,1130.00 388.55,1130.00 388.55,1130.00 385.09,1143.00 385.09,1143.00 383.18,1149.49 381.20,1150.55 381.01,1158.00 380.74,1169.17 383.93,1172.87 392.00,1180.16 394.88,1182.76 397.57,1185.56 401.00,1187.44 401.00,1187.44 411.00,1191.06 411.00,1191.06 418.70,1193.96 418.20,1194.96 427.00,1195.00 427.00,1195.00 432.00,1195.00 432.00,1195.00 437.72,1194.99 441.14,1195.10 445.99,1191.44 450.28,1188.20 451.85,1184.43 455.04,1184.01 457.18,1183.73 460.02,1185.63 462.00,1186.48 464.60,1187.59 475.55,1191.49 478.00,1191.82 481.57,1192.31 488.60,1193.13 492.00,1192.91 496.61,1192.61 499.68,1191.44 504.00,1190.28 519.79,1186.04 520.87,1184.97 533.00,1174.28 538.95,1169.05 543.39,1164.45 548.07,1158.00 548.07,1158.00 568.43,1125.00 568.43,1125.00 572.48,1117.67 577.49,1109.89 580.30,1102.00 580.30,1102.00 583.88,1088.00 583.88,1088.00 589.04,1066.29 589.04,1068.69 589.00,1046.00 588.98,1033.34 583.98,1017.86 570.00,1014.42 566.19,1013.48 560.79,1014.34 557.00,1015.24 552.88,1016.21 548.20,1017.61 545.51,1021.11 542.38,1025.17 543.94,1031.26 544.58,1036.00 544.58,1036.00 545.98,1059.00 545.98,1059.00 545.81,1065.42 541.73,1072.03 539.88,1079.00 535.69,1094.82 533.84,1096.40 525.86,1110.00 517.50,1124.25 520.53,1120.94 509.65,1135.00 502.84,1143.81 497.66,1150.96 488.00,1157.00 Z M 1425.00,1024.42 C 1412.94,1026.25 1413.75,1026.09 1403.00,1032.28 1400.11,1033.95 1392.94,1038.94 1390.00,1039.05 1384.97,1039.24 1380.81,1031.62 1377.49,1028.56 1372.44,1023.90 1357.62,1023.80 1352.13,1027.74 1345.64,1032.39 1349.91,1047.79 1349.86,1055.00 1350.17,1069.09 1351.72,1065.52 1349.86,1082.00 1349.86,1082.00 1345.09,1110.00 1345.09,1110.00 1345.64,1119.71 1347.35,1129.78 1355.30,1136.43 1359.78,1140.17 1366.54,1139.63 1372.00,1140.17 1374.94,1140.46 1379.19,1141.50 1382.00,1141.23 1384.60,1140.99 1386.70,1140.02 1388.26,1137.86 1390.89,1134.22 1389.94,1123.73 1390.00,1119.00 1390.21,1103.41 1405.43,1086.35 1414.92,1075.00 1418.95,1070.18 1425.14,1062.85 1431.98,1062.27 1436.40,1061.89 1437.60,1066.51 1438.08,1070.00 1438.08,1070.00 1438.08,1089.00 1438.08,1089.00 1438.08,1089.00 1440.00,1103.00 1440.00,1103.00 1440.06,1108.60 1439.25,1118.15 1441.57,1123.00 1443.74,1127.56 1451.17,1134.67 1456.00,1136.30 1461.51,1138.16 1472.56,1136.47 1476.30,1131.79 1480.61,1126.40 1481.92,1113.83 1482.00,1107.00 1482.16,1092.87 1484.34,1081.35 1480.96,1067.00 1478.33,1055.82 1475.62,1051.70 1468.27,1043.00 1465.93,1040.22 1463.50,1036.87 1460.83,1034.47 1451.38,1025.95 1437.37,1022.91 1425.00,1024.42 Z M 779.00,1033.23 C 774.70,1034.04 768.77,1033.98 765.04,1036.14 757.57,1040.47 759.90,1049.89 763.55,1056.00 765.18,1058.74 768.93,1064.63 771.18,1066.61 774.73,1069.74 790.06,1074.40 795.00,1074.60 797.14,1074.99 798.91,1074.78 801.00,1074.60 813.50,1071.98 810.64,1060.07 807.07,1051.00 803.80,1042.66 795.44,1033.54 786.00,1033.23 783.55,1032.91 781.41,1033.13 779.00,1033.23 Z M 1189.00,1109.00 C 1189.76,1107.65 1189.80,1106.97 1191.29,1106.02 1193.34,1104.73 1204.14,1104.01 1207.00,1104.00 1221.99,1103.93 1247.00,1099.37 1253.64,1084.00 1255.38,1079.95 1255.05,1075.33 1255.00,1071.00 1254.96,1067.67 1254.14,1058.86 1252.91,1056.00 1251.12,1051.82 1247.28,1047.66 1244.00,1044.58 1241.93,1042.64 1239.31,1039.79 1236.91,1038.44 1232.51,1035.96 1223.10,1034.06 1218.00,1034.00 1194.55,1033.73 1177.33,1041.82 1159.00,1055.99 1143.89,1067.68 1151.13,1064.30 1142.82,1072.90 1140.09,1075.72 1135.47,1077.61 1135.25,1082.02 1135.12,1084.73 1142.37,1098.84 1144.00,1103.00 1146.51,1109.42 1147.10,1115.39 1151.53,1120.98 1155.37,1125.84 1157.61,1126.03 1162.00,1129.37 1170.27,1135.68 1173.71,1138.62 1184.00,1141.91 1191.38,1144.27 1202.28,1145.25 1210.00,1146.18 1210.00,1146.18 1223.00,1148.61 1223.00,1148.61 1223.00,1148.61 1238.00,1151.57 1238.00,1151.57 1238.00,1151.57 1248.00,1152.46 1248.00,1152.46 1248.00,1152.46 1259.00,1154.95 1259.00,1154.95 1259.00,1154.95 1267.00,1154.95 1267.00,1154.95 1275.84,1156.24 1271.83,1157.06 1284.00,1157.00 1288.29,1156.98 1296.36,1156.42 1299.96,1154.15 1309.77,1147.93 1304.22,1136.70 1296.00,1132.28 1290.01,1129.06 1276.04,1127.60 1269.00,1126.84 1260.01,1125.86 1249.77,1123.41 1241.00,1121.15 1241.00,1121.15 1214.00,1116.55 1214.00,1116.55 1203.44,1114.43 1198.82,1112.53 1189.00,1109.00 Z M 627.00,1077.46 C 622.77,1078.40 616.39,1079.81 613.51,1083.22 610.46,1086.84 609.86,1103.16 608.58,1109.00 604.92,1125.68 603.97,1133.92 604.00,1151.00 604.00,1151.00 604.55,1161.00 604.55,1161.00 604.63,1165.39 602.53,1169.62 603.57,1174.00 604.80,1179.18 612.04,1188.36 617.00,1190.26 619.69,1191.29 623.90,1190.86 627.00,1191.30 631.08,1191.88 634.75,1193.53 639.00,1192.60 648.45,1190.54 646.56,1183.21 647.09,1176.00 647.09,1176.00 648.71,1167.00 648.71,1167.00 648.71,1167.00 649.65,1161.00 649.65,1161.00 650.97,1156.81 663.02,1141.94 666.46,1138.09 670.68,1133.38 684.63,1123.46 691.00,1123.14 696.73,1122.86 701.01,1126.53 710.00,1125.91 716.19,1125.48 720.89,1124.12 720.38,1117.00 719.86,1109.75 719.73,1107.50 713.98,1102.43 700.34,1090.37 693.31,1089.77 676.00,1092.27 672.70,1092.75 656.49,1095.47 654.48,1094.89 651.77,1094.09 649.73,1089.35 647.78,1087.00 640.80,1078.57 638.11,1075.93 627.00,1077.46 Z M 778.00,1089.42 C 771.85,1090.30 762.29,1089.97 759.60,1097.02 758.89,1098.88 759.00,1101.97 759.00,1104.00 759.00,1104.00 759.00,1115.00 759.00,1115.00 759.02,1126.23 760.71,1126.44 762.54,1136.00 764.44,1145.92 766.98,1160.23 772.08,1169.00 774.98,1173.97 787.40,1183.39 793.00,1184.45 793.00,1184.45 805.98,1184.45 805.98,1184.45 815.34,1182.69 811.47,1167.09 809.66,1161.00 809.66,1161.00 801.28,1126.00 801.28,1126.00 800.28,1118.95 800.08,1108.19 797.52,1102.00 793.96,1093.40 787.32,1088.38 778.00,1089.42 Z M 1508.00,1157.44 C 1503.56,1158.26 1497.58,1158.78 1494.42,1162.23 1490.82,1166.14 1489.09,1177.47 1487.58,1183.00 1487.58,1183.00 1485.32,1195.00 1485.32,1195.00 1485.32,1195.00 1482.00,1207.00 1482.00,1207.00 1482.00,1207.00 1478.68,1227.00 1478.68,1227.00 1478.68,1227.00 1476.94,1234.00 1476.94,1234.00 1476.94,1234.00 1476.94,1241.00 1476.94,1241.00 1475.77,1247.24 1472.71,1252.14 1466.00,1252.89 1460.46,1253.52 1448.88,1252.53 1447.60,1260.02 1446.35,1267.33 1453.88,1275.73 1460.00,1278.67 1463.76,1280.48 1468.63,1281.19 1470.83,1285.11 1471.93,1287.08 1472.48,1293.35 1472.92,1296.00 1472.92,1296.00 1474.83,1308.00 1474.83,1308.00 1476.16,1321.63 1477.03,1338.26 1493.00,1342.33 1497.18,1343.40 1500.69,1343.95 1505.00,1344.00 1505.00,1344.00 1512.00,1344.00 1512.00,1344.00 1520.46,1343.88 1521.52,1342.01 1522.24,1334.00 1522.24,1334.00 1522.24,1328.00 1522.24,1328.00 1521.96,1320.85 1518.80,1315.96 1517.52,1310.00 1517.52,1310.00 1516.28,1300.00 1516.28,1300.00 1515.86,1296.44 1515.45,1290.21 1517.74,1287.28 1521.36,1282.62 1535.63,1283.25 1542.00,1281.51 1545.71,1280.50 1549.17,1278.30 1553.00,1278.19 1561.38,1277.95 1571.27,1281.69 1572.32,1269.00 1572.64,1265.05 1570.29,1255.33 1566.78,1253.17 1564.33,1251.67 1550.38,1250.04 1547.00,1250.00 1547.00,1250.00 1528.00,1250.00 1528.00,1250.00 1524.57,1249.98 1520.21,1250.32 1519.48,1245.94 1518.88,1242.36 1522.60,1228.31 1523.49,1224.00 1526.29,1210.44 1528.02,1196.86 1528.00,1183.00 1527.99,1175.18 1524.61,1162.13 1516.98,1158.31 1513.95,1156.79 1511.22,1157.06 1508.00,1157.44 Z M 1389.00,1188.78 C 1383.06,1190.95 1380.72,1195.66 1381.34,1202.00 1382.05,1209.29 1387.70,1220.91 1394.09,1224.56 1396.12,1225.72 1401.54,1227.18 1404.00,1227.85 1408.73,1229.13 1421.67,1231.38 1424.98,1226.57 1426.27,1224.69 1426.02,1220.29 1426.00,1218.00 1425.89,1208.73 1421.59,1194.83 1412.91,1190.17 1410.00,1188.61 1405.30,1189.04 1402.00,1188.78 1396.95,1188.94 1394.01,1187.77 1389.00,1188.78 Z M 1169.00,1200.26 C 1165.51,1201.00 1160.96,1201.31 1158.60,1204.28 1156.02,1207.51 1157.05,1216.03 1157.58,1220.00 1159.03,1231.02 1160.10,1241.87 1160.00,1253.00 1159.96,1257.93 1161.08,1264.01 1155.94,1266.83 1150.74,1269.68 1135.38,1266.85 1135.21,1277.00 1135.10,1283.65 1141.66,1291.67 1147.00,1295.01 1151.26,1297.67 1155.98,1297.90 1158.30,1303.04 1160.67,1308.29 1159.56,1315.43 1160.29,1321.00 1162.06,1334.60 1170.04,1357.19 1182.00,1364.66 1188.66,1368.82 1192.25,1367.30 1198.00,1368.52 1204.30,1369.85 1207.74,1372.02 1215.00,1370.78 1223.59,1369.31 1226.77,1360.61 1223.97,1353.00 1223.25,1351.03 1215.32,1340.08 1213.66,1338.64 1210.60,1335.99 1207.08,1336.04 1204.57,1330.98 1202.48,1326.77 1203.24,1322.46 1202.91,1318.00 1202.91,1318.00 1201.18,1308.00 1201.18,1308.00 1200.20,1296.98 1210.20,1297.76 1218.00,1296.83 1218.00,1296.83 1229.00,1294.32 1229.00,1294.32 1229.00,1294.32 1256.00,1289.84 1256.00,1289.84 1260.86,1288.50 1266.14,1286.38 1267.40,1281.00 1268.15,1278.78 1267.82,1276.19 1267.40,1274.00 1263.29,1259.18 1251.05,1260.98 1239.00,1261.00 1229.37,1261.02 1224.11,1262.80 1215.00,1264.39 1211.58,1264.98 1207.28,1265.56 1204.74,1262.57 1202.89,1260.40 1202.25,1248.64 1201.73,1245.00 1199.27,1227.95 1197.33,1201.47 1175.00,1200.26 1172.62,1199.95 1171.30,1200.14 1169.00,1200.26 Z M 445.00,1236.22 C 436.19,1238.06 427.93,1239.70 420.00,1244.17 412.28,1248.53 410.05,1253.13 406.00,1254.23 403.50,1254.91 395.14,1253.27 392.00,1253.09 385.90,1252.75 374.18,1255.39 374.15,1263.00 374.09,1276.44 388.68,1282.52 390.70,1297.00 391.70,1304.19 386.82,1320.13 386.18,1329.00 386.18,1329.00 388.00,1361.00 388.00,1361.00 388.02,1373.24 387.38,1371.14 390.79,1383.00 393.76,1393.28 394.88,1405.06 407.00,1409.39 411.55,1411.01 415.46,1410.72 420.00,1411.29 422.60,1411.61 427.67,1412.74 430.00,1412.49 436.49,1411.79 438.10,1406.36 439.58,1401.00 443.28,1387.55 437.02,1380.23 436.05,1369.00 435.59,1365.60 434.37,1361.25 436.05,1358.14 438.34,1354.43 444.14,1354.34 448.00,1353.25 448.00,1353.25 458.00,1349.91 458.00,1349.91 463.33,1348.38 477.52,1346.14 483.00,1346.01 486.48,1345.94 505.38,1347.72 508.00,1348.74 509.48,1349.31 510.64,1350.11 511.78,1351.23 516.20,1355.59 520.08,1370.67 521.66,1377.00 521.66,1377.00 526.09,1393.00 526.09,1393.00 526.09,1393.00 531.24,1408.00 531.24,1408.00 533.41,1416.40 532.02,1421.09 538.53,1428.91 542.92,1434.20 551.07,1438.47 558.00,1438.74 558.00,1438.74 565.00,1437.93 565.00,1437.93 565.00,1437.93 572.00,1437.93 572.00,1437.93 581.42,1436.06 581.51,1426.32 579.51,1419.00 579.51,1419.00 576.59,1411.00 576.59,1411.00 576.59,1411.00 568.88,1387.00 568.88,1387.00 568.88,1387.00 565.64,1375.00 565.64,1375.00 565.64,1375.00 560.54,1362.00 560.54,1362.00 560.54,1362.00 557.25,1350.00 557.25,1350.00 557.25,1350.00 550.09,1330.00 550.09,1330.00 550.09,1330.00 546.11,1316.00 546.11,1316.00 546.11,1316.00 541.67,1304.00 541.67,1304.00 535.68,1285.85 528.47,1267.42 513.72,1254.53 509.96,1251.25 498.80,1244.76 494.00,1243.10 494.00,1243.10 484.00,1240.19 484.00,1240.19 477.86,1237.96 463.65,1236.01 457.00,1236.22 457.00,1236.22 445.00,1236.22 445.00,1236.22 Z M 634.00,1245.52 C 628.48,1246.98 620.03,1248.01 619.32,1255.00 618.96,1258.57 622.22,1266.13 623.25,1270.00 625.39,1278.12 625.91,1284.70 626.00,1293.00 626.00,1293.00 627.83,1324.00 627.83,1324.00 627.83,1324.00 627.83,1338.00 627.83,1338.00 627.83,1338.00 636.33,1370.00 636.33,1370.00 638.78,1377.34 641.99,1389.34 647.21,1394.83 655.63,1403.68 662.13,1403.35 673.00,1404.17 676.20,1404.31 679.89,1405.46 682.96,1404.17 687.40,1402.52 687.94,1397.99 692.04,1396.84 692.04,1396.84 710.00,1396.84 710.00,1396.84 720.64,1396.87 727.53,1393.56 737.00,1389.75 737.00,1389.75 748.00,1385.91 748.00,1385.91 754.77,1383.13 766.93,1375.59 771.47,1369.96 775.27,1365.25 777.89,1360.09 778.00,1354.00 778.29,1336.72 775.14,1325.88 761.99,1313.84 758.23,1310.40 755.66,1307.71 751.00,1305.38 748.11,1303.93 745.95,1303.47 743.00,1302.49 726.58,1297.01 717.02,1296.93 700.00,1299.59 700.00,1299.59 681.00,1303.10 681.00,1303.10 678.44,1303.71 674.66,1304.71 672.31,1303.10 669.00,1300.80 669.32,1287.25 668.70,1283.00 667.15,1272.28 660.14,1251.27 650.00,1246.17 646.42,1244.38 637.99,1244.88 634.00,1245.52 Z M 1398.00,1248.51 C 1393.68,1248.99 1380.35,1249.38 1377.85,1252.43 1375.19,1255.68 1375.41,1272.01 1374.70,1277.00 1374.70,1277.00 1372.32,1296.00 1372.32,1296.00 1372.32,1296.00 1372.32,1305.00 1372.32,1305.00 1372.32,1305.00 1372.32,1312.00 1372.32,1312.00 1372.94,1324.80 1379.51,1335.08 1392.00,1339.39 1395.48,1340.59 1399.34,1340.95 1403.00,1341.00 1409.90,1341.07 1415.46,1341.67 1415.96,1333.00 1416.22,1328.39 1415.37,1326.11 1415.04,1322.00 1415.04,1322.00 1415.04,1306.00 1415.04,1306.00 1415.04,1306.00 1417.00,1271.00 1417.00,1271.00 1416.99,1268.28 1417.02,1265.63 1416.20,1263.00 1413.88,1255.59 1405.85,1248.46 1398.00,1248.51 Z M 458.00,1267.51 C 479.38,1263.70 488.74,1279.67 495.19,1297.00 495.19,1297.00 500.06,1312.00 500.06,1312.00 500.40,1313.53 500.87,1315.78 499.36,1316.89 498.11,1317.81 485.03,1316.00 482.00,1316.00 471.68,1315.98 461.20,1316.58 451.00,1318.28 447.70,1318.84 441.41,1321.03 438.51,1318.98 434.71,1316.29 436.35,1307.86 437.09,1304.00 438.18,1298.40 439.62,1296.94 441.25,1292.00 444.66,1281.69 446.70,1272.27 458.00,1267.51 Z M 1060.00,1270.21 C 1056.00,1271.03 1050.37,1271.14 1047.51,1274.30 1043.44,1278.80 1046.06,1283.90 1045.87,1289.00 1045.71,1293.22 1042.68,1300.19 1040.73,1304.00 1036.68,1311.87 1024.05,1319.09 1016.00,1322.69 1013.53,1323.79 1006.88,1326.54 1005.41,1322.69 1004.22,1319.56 1009.11,1315.09 1008.47,1308.00 1007.24,1294.19 990.70,1288.86 979.00,1292.44 968.87,1295.55 962.32,1307.94 961.34,1318.00 960.68,1324.76 964.43,1332.81 968.52,1338.00 981.26,1354.18 995.05,1355.47 1014.00,1356.82 1020.49,1357.28 1026.76,1354.82 1033.00,1353.51 1037.72,1352.52 1039.20,1353.15 1045.00,1351.25 1049.84,1349.67 1052.67,1347.68 1057.00,1345.30 1066.96,1339.84 1077.31,1334.80 1082.51,1324.00 1087.01,1314.66 1085.86,1313.92 1087.32,1305.00 1088.35,1298.73 1090.04,1294.81 1088.47,1288.00 1087.07,1281.92 1080.89,1272.99 1075.00,1270.74 1073.11,1270.02 1070.99,1270.03 1069.00,1270.21 1069.00,1270.21 1060.00,1270.21 1060.00,1270.21 Z M 860.00,1296.42 C 853.26,1297.38 848.90,1296.62 842.00,1298.77 830.18,1302.46 812.29,1317.32 806.21,1328.00 802.69,1334.17 801.49,1342.96 801.09,1350.00 800.63,1358.25 803.47,1363.18 809.04,1369.00 818.01,1378.38 828.13,1381.85 841.00,1382.00 859.93,1382.22 869.17,1379.64 887.00,1374.42 887.00,1374.42 902.00,1369.94 902.00,1369.94 908.95,1367.32 919.92,1362.14 924.11,1355.91 927.10,1351.46 927.01,1343.24 927.00,1338.00 926.98,1322.73 918.95,1313.14 906.00,1305.72 903.59,1304.34 900.61,1302.46 898.00,1301.64 891.81,1299.71 883.43,1299.62 877.00,1298.82 869.54,1297.88 870.65,1295.14 860.00,1296.42 Z M 1565.00,1323.42 C 1562.40,1323.80 1557.24,1323.96 1555.22,1325.17 1548.00,1329.53 1551.48,1340.02 1556.18,1344.83 1563.10,1351.90 1574.05,1356.53 1584.00,1355.96 1593.24,1355.43 1594.77,1345.42 1592.30,1338.00 1591.66,1336.08 1586.71,1327.74 1585.37,1326.23 1581.28,1321.61 1570.70,1322.73 1565.00,1323.42 Z M 723.00,1327.29 C 737.29,1326.12 736.62,1340.89 729.79,1349.00 718.41,1362.50 713.10,1363.43 697.00,1367.24 697.00,1367.24 687.00,1369.80 687.00,1369.80 685.11,1369.97 683.03,1369.87 681.39,1368.83 675.87,1365.32 671.39,1348.54 676.31,1343.39 679.81,1339.74 690.04,1336.04 695.00,1334.58 695.00,1334.58 706.00,1330.77 706.00,1330.77 706.00,1330.77 723.00,1327.29 723.00,1327.29 Z M 843.00,1351.00 C 843.65,1345.37 844.95,1344.41 848.35,1340.00 855.99,1330.11 860.14,1329.11 872.00,1331.19 874.34,1331.60 880.82,1331.25 881.95,1332.78 885.63,1337.73 873.26,1343.70 870.00,1344.79 870.00,1344.79 859.00,1347.77 859.00,1347.77 850.42,1350.35 852.98,1350.97 843.00,1351.00 Z" stroke-width="1" stroke="black" fill="none" id="Selection"></path> </svg> 